<svg xmlns="http://www.w3.org/2000/svg" width="257" height="50" viewBox="0 0 257 50">
    <g fill="none" fill-rule="evenodd">
        <path fill="#582C5F" d="M40.513 0l-8.104 4.678-5.402-3.12-2.698 1.563-2.703-1.563-5.401 3.12L8.103 0 5.402 1.558v9.356l2.7 1.56-2.7 1.56 2.7 1.56v-3.12l2.701-1.56v3.12l-2.7 1.56-2.701 1.56v3.116l-2.7 1.563v3.118l2.7-1.56v9.356l-2.7-1.56L0 32.747l2.701 1.558v3.12l5.402 3.12 2.7-1.562v3.12l5.402 3.118 2.7-1.558-5.401-3.118 2.7-1.562 5.402 3.12 2.703-1.558-5.401-3.12-2.703 1.558-2.701-1.558 2.7-1.56 2.704 1.56v-3.12l2.698 1.56 2.703-1.56 2.698 1.56 2.703-1.56v3.12l-5.401 3.12 2.698 1.558 5.402-3.12-2.699-1.558 2.699-1.56v-3.118l2.703 1.558-2.703 1.56 2.703 1.56-2.703 1.558 2.703 1.562-5.402 3.118 2.699 1.558 5.403-3.118v-3.12l2.701 1.562 5.401-3.12v-3.12l2.703-1.558-2.703-1.56 2.703-1.558-2.703-1.56 2.703-1.563-2.703-1.555v3.118l-2.7 1.56V23.39l2.7 1.56v-3.118l-2.7-1.563v-3.115l-2.701-1.56 2.7-1.56-2.7-1.56v3.12l-2.7-1.56v-3.12l2.7 1.56 2.7-1.56V1.557L40.514 0zM21.606 7.796V4.678l2.703-1.557 2.698 1.557v3.118L24.31 6.238l-2.703 1.558 2.703 1.56-2.703 1.558v3.12l-2.698 1.56v-3.12l-8.105-4.678 2.7-1.558 5.405 3.118 2.698-1.56zm13.506-1.558l2.7 1.558-2.7 1.56-2.703-1.56 2.703-1.558zM24.309 9.356l5.401-3.118 2.699 1.558-2.699 1.56 2.699 1.558-2.699 1.56-5.401-3.118zm10.803 3.118v3.12l-2.703-1.56v3.12l-2.699-1.56 2.699-1.56 2.703-1.56zm-5.402 0v3.12l-2.703-1.56-2.698 1.56-2.703-1.56 2.703-1.56 2.698 1.56 2.703-1.56zm-16.206 0l2.7 1.56-2.7 1.56v3.116l-2.7-1.555 2.7-1.56v-3.12zm2.7 4.68v-3.12l2.704 1.56v3.116l-2.703-1.555zm18.908-1.56l2.7 1.56-2.7 1.556 2.7 1.56-2.7 1.563v3.118l-2.703-1.56v6.238l-2.699-1.56v-6.236l5.402-3.123v-3.115zm-21.608 6.239l-2.7-1.563 2.7-1.56 5.404 3.123v6.236l-2.703 1.56V23.39l-2.701 1.56v-3.118zm21.608 6.236l2.7-1.563v-3.115l2.701 1.56v3.118l-5.401 3.118v-3.118zm-27.01 0V24.95l2.701-1.56v3.115l2.7 1.563v3.118l-5.4-3.118zm27.01 6.236l8.102-4.676v3.118l-5.402 3.118-2.7-1.56zm-27.01-3.118l2.701-1.558v3.118l-2.7-1.56zm8.103 1.56v3.118l-2.701-1.56 2.7-1.558zm-8.102 1.558l2.7-1.558 2.7 1.558-2.7 1.56-2.7-1.56zm21.607 9.358v-.002.002zm-8.104 1.558l-2.698-1.558v3.118l5.4 3.118 5.402-3.118v-3.118l-2.703 1.558-2.698-1.56-2.703 1.56zm-2.7-1.558h.002v-.002l-.003.002z"/>
        <path fill="#582C5F" d="M0 29.629l2.7 1.557V28.07zM0 26.507l2.7 1.56v-3.115z"/>
        <path fill="#959CA3" d="M65.164 39.772v-7.944c0-.12.096-.228.216-.228h2.76c2.316 0 4.212 1.884 4.212 4.188A4.217 4.217 0 0 1 68.14 40h-2.76c-.12 0-.216-.108-.216-.228zm1.224-.912h1.584c1.764 0 3.048-1.296 3.048-3.072 0-1.764-1.284-3.048-3.048-3.048h-1.584v6.12zm9.08-3.048c0-2.4 1.908-4.332 4.308-4.332s4.32 1.932 4.32 4.332-1.92 4.308-4.32 4.308a4.282 4.282 0 0 1-4.308-4.308zm1.2 0a3.116 3.116 0 0 0 3.108 3.108 3.119 3.119 0 0 0 3.12-3.108c0-1.704-1.404-3.132-3.12-3.132-1.704 0-3.108 1.428-3.108 3.132zm10.532 0c0-2.4 1.932-4.332 4.332-4.332 1.212 0 2.088.408 2.904 1.116.108.096.108.24.012.336l-.528.54c-.084.108-.192.108-.3 0-.564-.492-1.332-.804-2.076-.804-1.716 0-3.012 1.44-3.012 3.12 0 1.68 1.308 3.108 3.024 3.108.876 0 1.488-.348 2.064-.792.108-.084.216-.072.288-.012l.552.54c.096.084.072.24-.012.324-.816.792-1.848 1.164-2.916 1.164-2.4 0-4.332-1.908-4.332-4.308zm10.496 3.36c-.108-.096-.192-.18-.072-.384.108-.156.204-.336.312-.492.108-.156.276-.204.408-.096.072.06.996.828 1.92.828.828 0 1.356-.504 1.356-1.116 0-.72-.624-1.176-1.812-1.668-1.224-.516-2.184-1.152-2.184-2.544 0-.936.72-2.22 2.628-2.22 1.2 0 2.1.624 2.22.708.096.06.192.228.072.408-.096.144-.204.312-.3.456-.096.156-.252.228-.42.12-.084-.048-.924-.6-1.62-.6-1.008 0-1.356.636-1.356 1.08 0 .684.528 1.104 1.524 1.512 1.392.564 2.58 1.224 2.58 2.688 0 1.248-1.116 2.268-2.676 2.268-1.464 0-2.388-.768-2.58-.948z"/>
        <g fill="#582C5F">
            <path d="M254.135 7.514a.28.28 0 0 0 .291-.285c0-.169-.116-.285-.29-.285h-.518v.57h.517zm-.94-.866a.11.11 0 0 1 .11-.111h.86c.36 0 .714.244.714.686a.638.638 0 0 1-.442.64c.105.215.21.435.309.644.04.076-.018.157-.1.157h-.26c-.047 0-.088-.04-.105-.08l-.29-.687h-.361v.657a.11.11 0 0 1-.11.11h-.216a.11.11 0 0 1-.11-.11V6.648zm.749 2.644c.935 0 1.685-.756 1.685-1.685 0-.936-.75-1.685-1.685-1.685a1.686 1.686 0 0 0 0 3.37zm0-3.777c1.15 0 2.091.941 2.091 2.092a2.089 2.089 0 1 1-2.092-2.092zM71.478 20.547c3.553 0 6.14-2.611 6.14-6.189 0-3.553-2.587-6.14-6.14-6.14h-3.19v12.329h3.19zM65.821 6.38c0-.242.194-.46.435-.46h5.56c4.666 0 8.485 3.796 8.485 8.437 0 4.69-3.82 8.485-8.485 8.485h-5.56c-.241 0-.435-.217-.435-.46V6.382zM98.277 17.09l-2.973-6.624h-.121l-2.95 6.624h6.044zm-10.95 5.125l7.42-16.27a.566.566 0 0 1 .412-.265h.241c.12 0 .339.12.411.266l7.373 16.269c.145.314-.049.628-.41.628h-1.524a.563.563 0 0 1-.556-.363l-1.498-3.311H91.29c-.484 1.112-.992 2.2-1.475 3.311a.608.608 0 0 1-.556.363h-1.523c-.362 0-.556-.314-.41-.628zM113.555 8.194h-3.94a.459.459 0 0 1-.46-.46V6.382c0-.242.193-.46.46-.46h10.394c.266 0 .46.218.46.46v1.354c0 .241-.194.459-.46.459h-3.94v14.19a.475.475 0 0 1-.46.459h-1.595a.475.475 0 0 1-.46-.459V8.194zM137.365 17.09l-2.973-6.624h-.121l-2.95 6.624h6.044zm-10.95 5.125l7.42-16.27a.566.566 0 0 1 .412-.265h.241c.121 0 .339.12.412.266l7.372 16.269c.145.314-.048.628-.41.628h-1.523a.563.563 0 0 1-.556-.363l-1.5-3.311h-7.904c-.484 1.112-.991 2.2-1.474 3.311a.608.608 0 0 1-.557.363h-1.523c-.362 0-.556-.314-.41-.628zM157.59 8.194h-3.94a.459.459 0 0 1-.46-.46V6.382c0-.242.194-.46.46-.46h10.395a.46.46 0 0 1 .46.46v1.354a.46.46 0 0 1-.46.459h-3.94v14.19a.475.475 0 0 1-.46.459h-1.595a.475.475 0 0 1-.46-.459V8.194zM174.956 6.38c0-.24.218-.458.46-.458h1.595c.242 0 .46.217.46.459v16.003c0 .241-.218.46-.46.46h-1.596a.476.476 0 0 1-.459-.46V6.38zM196.881 5.68c2.32 0 4.23.846 5.875 2.248.193.193.217.484.024.677-.363.387-.725.75-1.088 1.136-.194.218-.387.194-.629-.024-1.136-.991-2.635-1.644-4.11-1.644-3.432 0-6.067 2.9-6.067 6.285 0 3.36 2.635 6.261 6.068 6.261 2.006 0 3.384-.725 3.626-.822V17.09h-2.369c-.266 0-.46-.193-.46-.435v-1.402c0-.266.194-.46.46-.46h4.4c.241 0 .434.218.434.46 0 1.933.025 3.916.025 5.85a.598.598 0 0 1-.194.387s-2.49 1.595-5.995 1.595c-4.81 0-8.702-3.844-8.702-8.678 0-4.835 3.892-8.727 8.702-8.727M214.116 6.38a.46.46 0 0 1 .46-.458h9.67c.265 0 .458.217.458.459v1.354a.459.459 0 0 1-.459.459h-7.639v4.932h6.455c.241 0 .459.217.459.459v1.353c0 .266-.218.46-.46.46h-6.454v5.197h7.64c.265 0 .458.218.458.46v1.329c0 .241-.193.46-.459.46h-9.67a.46.46 0 0 1-.459-.46V6.38zM241.858 14.14c1.571 0 2.95-1.329 2.95-2.997 0-1.571-1.379-2.877-2.95-2.877h-4.303v5.875h4.303zm-6.841-7.76c0-.24.193-.458.46-.458h6.574c2.901 0 5.27 2.296 5.27 5.173 0 2.224-1.474 4.06-3.578 4.907l3.312 6.14c.17.315 0 .701-.41.701h-1.886a.446.446 0 0 1-.387-.218l-3.215-6.405h-3.65v6.164c0 .241-.218.46-.46.46h-1.57a.46.46 0 0 1-.46-.46V6.381z"/>
        </g>
    </g>
</svg>
